<?xml version="1.0" encoding="UTF-8" standalone="no"?>
<svg width="78px" height="78px" viewBox="0 0 78 78" version="1.1" xmlns="http://www.w3.org/2000/svg" xmlns:xlink="http://www.w3.org/1999/xlink">
    <!-- Generator: Sketch 40.3 (33839) - http://www.bohemiancoding.com/sketch -->
    <title>Page-1</title>
    <desc>Created with Sketch.</desc>
    <defs></defs>
    <g id="Page-1" stroke="none" stroke-width="1" fill="none" fill-rule="evenodd">
        <g id="calendar" fill="#FFB6B4">
            <g id="Page-1">
                <g id="Artboard">
                    <g id="Page-1">
                        <path d="M70.7777778,75.1111111 L7.22222222,75.1111111 C4.83311111,75.1111111 2.88888889,73.1668889 2.88888889,70.7777778 L2.88888889,28.8888889 L75.1111111,28.8888889 L75.1111111,70.7777778 C75.1111111,73.1668889 73.1668889,75.1111111 70.7777778,75.1111111 M7.22222222,10.1111111 L17.3333333,10.1111111 L17.3333333,13 C17.3333333,15.3891111 19.2775556,17.3333333 21.6666667,17.3333333 L26,17.3333333 C26.7973333,17.3333333 27.4444444,16.6862222 27.4444444,15.8888889 C27.4444444,15.0915556 26.7973333,14.4444444 26,14.4444444 L21.6666667,14.4444444 C20.8707778,14.4444444 20.2222222,13.7958889 20.2222222,13 L20.2222222,4.33333333 C20.2222222,3.53744444 20.8707778,2.88888889 21.6666667,2.88888889 L23.1111111,2.88888889 C23.907,2.88888889 24.5555556,3.53744444 24.5555556,4.33333333 L24.5555556,7.22222222 C23.7582222,7.22222222 23.1111111,7.86933333 23.1111111,8.66666667 C23.1111111,9.464 23.7582222,10.1111111 24.5555556,10.1111111 L50.5555556,10.1111111 L50.5555556,13 C50.5555556,15.3891111 52.4997778,17.3333333 54.8888889,17.3333333 L59.2222222,17.3333333 C60.0195556,17.3333333 60.6666667,16.6862222 60.6666667,15.8888889 C60.6666667,15.0915556 60.0195556,14.4444444 59.2222222,14.4444444 L54.8888889,14.4444444 C54.093,14.4444444 53.4444444,13.7958889 53.4444444,13 L53.4444444,4.33333333 C53.4444444,3.53744444 54.093,2.88888889 54.8888889,2.88888889 L56.3333333,2.88888889 C57.1292222,2.88888889 57.7777778,3.53744444 57.7777778,4.33333333 L57.7777778,7.22222222 C56.9804444,7.22222222 56.3333333,7.86933333 56.3333333,8.66666667 C56.3333333,9.464 56.9804444,10.1111111 57.7777778,10.1111111 L70.7777778,10.1111111 C73.1668889,10.1111111 75.1111111,12.0553333 75.1111111,14.4444444 L75.1111111,26 L2.88888889,26 L2.88888889,14.4444444 C2.88888889,12.0553333 4.83311111,10.1111111 7.22222222,10.1111111 M70.7777778,7.22222222 L60.6666667,7.22222222 L60.6666667,4.33333333 C60.6666667,1.94422222 58.7224444,0 56.3333333,0 L54.8888889,0 C52.4997778,0 50.5555556,1.94422222 50.5555556,4.33333333 L50.5555556,7.22222222 L27.4444444,7.22222222 L27.4444444,4.33333333 C27.4444444,1.94422222 25.5002222,0 23.1111111,0 L21.6666667,0 C19.2775556,0 17.3333333,1.94422222 17.3333333,4.33333333 L17.3333333,7.22222222 L7.22222222,7.22222222 C3.23988889,7.22222222 0,10.4621111 0,14.4444444 L0,70.7777778 C0,74.7601111 3.23988889,78 7.22222222,78 L70.7777778,78 C74.7601111,78 78,74.7601111 78,70.7777778 L78,14.4444444 C78,10.4621111 74.7601111,7.22222222 70.7777778,7.22222222" id="Fill-1"></path>
                        <path d="M22.2443,43.6225111 C21.6058556,44.1006222 21.4773,45.0062889 21.9554111,45.6447333 C22.4335222,46.2831778 23.3377444,46.4146222 23.9776333,45.9336222 L27.4443,43.3336222 L27.4443,63.5558444 C27.4443,64.3531778 28.0914111,65.0002889 28.8887444,65.0002889 C29.6860778,65.0002889 30.3331889,64.3531778 30.3331889,63.5558444 L30.3331889,40.4447333 L28.0220778,39.2891778 L22.2443,43.6225111 L22.2443,43.6225111 Z" id="Fill-3"></path>
                        <path d="M47.4120111,49.2091889 L44.7773444,49.1456333 L44.7773444,43.3331889 L53.4440111,43.3331889 C54.2427889,43.3331889 54.8884556,42.6860778 54.8884556,41.8887444 C54.8884556,41.0914111 54.2427889,40.4443 53.4440111,40.4443 L41.8884556,40.4443 L41.8884556,51.9651889 L47.3773444,52.0966333 C50.0856778,52.0966333 52.2884556,54.2994111 52.2884556,57.0077444 C52.2884556,59.7146333 50.0856778,61.9174111 47.3773444,61.9174111 C45.4649,61.9174111 43.7127889,60.7936333 42.9140111,59.0545222 C42.5803444,58.3279667 41.7209,58.0101889 40.9986778,58.3438556 C40.2735667,58.6775222 39.9557889,59.5340778 40.2880111,60.2591889 C41.5562333,63.0224111 44.3396778,64.8063 47.3773444,64.8063 C51.6774556,64.8063 55.1773444,61.3078556 55.1773444,57.0077444 C55.1773444,52.7076333 51.6774556,49.2077444 47.4120111,49.2091889" id="Fill-5"></path>
                    </g>
                </g>
            </g>
        </g>
    </g>
</svg>