<?xml version="1.0" encoding="UTF-8" standalone="no"?>
<svg width="78px" height="78px" viewBox="0 0 78 78" version="1.1" xmlns="http://www.w3.org/2000/svg" xmlns:xlink="http://www.w3.org/1999/xlink">
    <!-- Generator: Sketch 40.3 (33839) - http://www.bohemiancoding.com/sketch -->
    <title>Page-1</title>
    <desc>Created with Sketch.</desc>
    <defs></defs>
    <g id="Page-1" stroke="none" stroke-width="1" fill="none" fill-rule="evenodd">
        <g id="card" fill="#FFB6B4">
            <g id="Page-1">
                <g id="Artboard">
                    <g id="Page-1">
                        <path d="M48.0644,2 C46.8594,2 45.7274,2.469 44.8754,3.321 L3.3204,44.876 C2.4684,45.727 2.0004,46.859 2.0004,48.064 C2.0004,49.269 2.4684,50.401 3.3204,51.253 L26.6954,74.628 C27.5464,75.479 28.6794,75.948 29.8844,75.948 C31.0884,75.948 32.2214,75.479 33.0734,74.628 L74.6264,33.073 C75.4794,32.221 75.9484,31.088 75.9484,29.884 C75.9484,28.679 75.4794,27.547 74.6264,26.695 L51.2524,3.321 C50.4014,2.469 49.2694,2 48.0644,2 M29.8844,77.948 C28.1454,77.948 26.5104,77.271 25.2814,76.042 L1.9064,52.667 C0.6764,51.438 0.0004,49.803 0.0004,48.064 C0.0004,46.325 0.6764,44.691 1.9064,43.461 L43.4604,1.907 C44.6904,0.677 46.3254,3.33066907e-15 48.0644,3.33066907e-15 C49.8034,3.33066907e-15 51.4374,0.677 52.6664,1.907 L76.0414,25.281 C77.2704,26.51 77.9484,28.145 77.9484,29.884 C77.9484,31.623 77.2704,33.258 76.0414,34.487 L34.4874,76.042 C33.2574,77.271 31.6234,77.948 29.8844,77.948" id="Fill-1"></path>
                        <path d="M4.0273,51.96 L9.1073,57.039 L57.0393,9.106 L51.9603,4.028 L4.0273,51.96 L4.0273,51.96 Z M9.1073,59.867 L1.1993,51.96 L51.9603,1.2 L59.8673,9.106 L9.1073,59.867 L9.1073,59.867 Z" id="Fill-4"></path>
                        <path d="M20.9101,58.4531 L24.6891,62.2331 L40.1581,46.7651 L36.3771,42.9851 L20.9101,58.4531 L20.9101,58.4531 Z M24.6891,65.0611 L18.0821,58.4531 L36.3771,40.1571 L42.9871,46.7651 L24.6891,65.0611 L24.6891,65.0611 Z" id="Fill-6"></path>
                        <polygon id="Fill-8" points="30.2929 70.2505 28.8789 68.8365 59.8279 37.8865 61.2419 39.3005"></polygon>
                    </g>
                </g>
            </g>
        </g>
    </g>
</svg>