<?xml version="1.0" encoding="UTF-8" standalone="no"?>
<svg width="77px" height="77px" viewBox="0 0 77 77" version="1.1" xmlns="http://www.w3.org/2000/svg" xmlns:xlink="http://www.w3.org/1999/xlink">
    <!-- Generator: Sketch 40.3 (33839) - http://www.bohemiancoding.com/sketch -->
    <title>Page-1</title>
    <desc>Created with Sketch.</desc>
    <defs></defs>
    <g id="Page-1" stroke="none" stroke-width="1" fill="none" fill-rule="evenodd">
        <g id="delivery" fill="#FFB6B4">
            <g id="Page-1">
                <g id="Artboard">
                    <g id="Page-1">
                        <path d="M73.7518364,60.9818182 C73.7518364,63.3274909 71.8429636,65.2363636 69.4972909,65.2363636 L67.8947455,65.2363636 C66.9686727,61.0612364 63.2416909,57.9270545 58.7928545,57.9270545 C54.3440182,57.9270545 50.6170364,61.0612364 49.6923818,65.2363636 L46.8063818,65.2363636 L46.8063818,28.3636364 L52.4791091,28.3636364 L52.4791091,42.5454545 C52.4791091,46.4553818 55.6600909,49.6363636 59.5700182,49.6363636 L73.0016182,49.6363636 C73.4611091,51.1382182 73.7518364,52.6528364 73.7518364,53.8909091 L73.7518364,60.9818182 L73.7518364,60.9818182 Z M58.7928545,73.7454545 C55.2133636,73.7454545 52.3018364,70.8339273 52.3018364,67.2558545 C52.3018364,63.6749455 55.2133636,60.7634182 58.7928545,60.7634182 C62.3723455,60.7634182 65.2838727,63.6749455 65.2838727,67.2558545 C65.2838727,70.8339273 62.3723455,73.7454545 58.7928545,73.7454545 L58.7928545,73.7454545 L58.7928545,73.7454545 Z M19.0426364,57.9270545 C14.5923818,57.9270545 10.8654,61.0626545 9.94074545,65.2377818 C9.03878182,65.2321091 8.09001818,65.1952364 7.57238182,64.9541455 C7.38376364,64.8662182 7.09729091,64.7329091 7.09729091,63.8181818 L7.10721818,63.3672 C7.14267273,62.1518182 7.19656364,60.3152727 6.0294,59.1140727 C5.59969091,58.6716 4.82110909,58.1454545 3.55183636,58.1454545 C3.37030909,58.1454545 3.22990909,58.1170909 3.18736364,58.0731273 C2.82005455,57.7044 2.8314,55.9486909 2.83990909,54.6666545 L2.84274545,21.2727273 C2.84274545,18.9270545 4.75161818,17.0181818 7.09729091,17.0181818 L8.5878,17.0181818 C9.30681818,24.9571636 15.9921273,31.2 24.1154727,31.2 C32.2388182,31.2 38.9241273,24.9571636 39.6431455,17.0181818 L39.7154727,17.0181818 C42.0611455,17.0181818 43.9700182,18.9270545 43.9700182,21.2727273 L43.9700182,65.2363636 L41.1336545,65.2363636 L28.1431091,65.2363636 C27.2170364,61.0612364 23.4914727,57.9270545 19.0426364,57.9270545 L19.0426364,57.9270545 L19.0426364,57.9270545 Z M19.0426364,73.7454545 C15.4631455,73.7454545 12.5516182,70.8339273 12.5516182,67.2558545 C12.5516182,63.6749455 15.4631455,60.7634182 19.0426364,60.7634182 C22.6221273,60.7634182 25.5336545,63.6749455 25.5336545,67.2558545 C25.5336545,70.8339273 22.6221273,73.7454545 19.0426364,73.7454545 L19.0426364,73.7454545 L19.0426364,73.7454545 Z M24.1154727,2.83636364 C31.1524909,2.83636364 36.8791091,8.56156364 36.8791091,15.6 C36.8791091,22.6384364 31.1524909,28.3636364 24.1154727,28.3636364 C17.0784545,28.3636364 11.3518364,22.6384364 11.3518364,15.6 C11.3518364,8.56156364 17.0784545,2.83636364 24.1154727,2.83636364 L24.1154727,2.83636364 L24.1154727,2.83636364 Z M62.6247818,31.9558909 L70.5878727,44.5862182 C71.0544545,45.1946182 71.4983455,45.9604364 71.9025273,46.8 L59.5700182,46.8 C57.2243455,46.8 55.3154727,44.8911273 55.3154727,42.5454545 L55.3154727,28.3636364 C57.9447818,28.3636364 61.0506,29.9208 62.6247818,31.9558909 L62.6247818,31.9558909 L62.6247818,31.9558909 Z M72.9108545,42.9666545 L64.9477636,30.3363273 C62.7368182,27.4588364 58.8651818,25.5272727 55.3154727,25.5272727 L46.8063818,25.5272727 L46.8063818,21.2727273 C46.8063818,17.3628 43.6254,14.1818182 39.7154727,14.1818182 L39.6431455,14.1818182 C38.9241273,6.24283636 32.2388182,0 24.1154727,0 C15.9921273,0 9.30681818,6.24283636 8.5878,14.1818182 L7.09729091,14.1818182 C3.18736364,14.1818182 0.00638181818,17.3628 0.00638181818,21.2727273 L0.00638181818,53.8909091 L0.00354545455,54.6482182 C-0.0106363636,56.9130545 -0.0234,58.8673091 1.17496364,60.0727636 C1.77485455,60.6754909 2.57329091,60.9818182 3.55183636,60.9818182 C3.705,60.9818182 3.9078,61.0016727 3.99430909,61.0896 C4.32616364,61.4299636 4.28929091,62.6822182 4.27085455,63.2849455 C4.26518182,63.4792364 4.26092727,63.6593455 4.26092727,63.8181818 C4.26092727,66.0688364 5.41107273,67.0757455 6.37543636,67.5238909 C7.35114545,67.9777091 8.52681818,68.0542909 9.75496364,68.0670545 C10.1690727,72.8307273 14.1726,76.5818182 19.0426364,76.5818182 C23.9084182,76.5818182 27.9119455,72.8335636 28.3288909,68.0755636 L46.8063818,68.0727273 L49.5066,68.0727273 C49.9235455,72.8321455 53.9256545,76.5818182 58.7928545,76.5818182 C63.6600545,76.5818182 67.6621636,72.8321455 68.0791091,68.0727273 L69.4972909,68.0727273 C73.4072182,68.0727273 76.5882,64.8917455 76.5882,60.9818182 L76.5882,53.8909091 C76.5882,50.4390545 74.9388545,45.5917091 72.9108545,42.9666545 L72.9108545,42.9666545 L72.9108545,42.9666545 Z" id="Fill-1"></path>
                        <path d="M19.8609273,21.2727273 C20.2239818,21.2727273 20.5870364,21.1337455 20.8635818,20.8572 L25.1181273,16.6026545 C25.3847455,16.3374545 25.5336545,15.9772364 25.5336545,15.6 L25.5336545,5.67272727 C25.5336545,4.88847273 24.8983091,4.25454545 24.1154727,4.25454545 C23.3326364,4.25454545 22.6972909,4.88847273 22.6972909,5.67272727 L22.6972909,15.0128727 L18.8582727,18.8518909 C18.3037636,19.4064 18.3037636,20.3026909 18.8582727,20.8572 C19.1348182,21.1337455 19.4978727,21.2727273 19.8609273,21.2727273" id="Fill-4"></path>
                    </g>
                </g>
            </g>
        </g>
    </g>
</svg>