<?xml version="1.0" encoding="UTF-8" standalone="no"?>
<svg width="78px" height="77px" viewBox="0 0 78 77" version="1.1" xmlns="http://www.w3.org/2000/svg" xmlns:xlink="http://www.w3.org/1999/xlink">
    <!-- Generator: Sketch 40.3 (33839) - http://www.bohemiancoding.com/sketch -->
    <title>Page-1</title>
    <desc>Created with Sketch.</desc>
    <defs></defs>
    <g id="Page-1" stroke="none" stroke-width="1" fill="none" fill-rule="evenodd">
        <g id="find" fill="#FFB6B4">
            <g id="Page-1">
                <g id="Artboard">
                    <g id="Page-1">
                        <path d="M28.8888889,54.8888889 C14.5527778,54.8888889 2.88888889,43.225 2.88888889,28.8888889 C2.88888889,14.5527778 14.5527778,2.88888889 28.8888889,2.88888889 C43.225,2.88888889 54.8888889,14.5527778 54.8888889,28.8888889 C54.8888889,43.225 43.225,54.8888889 28.8888889,54.8888889 M57.7777778,28.8888889 C57.7777778,12.9595556 44.8182222,0 28.8888889,0 C12.9595556,0 0,12.9595556 0,28.8888889 C0,44.8182222 12.9595556,57.7777778 28.8888889,57.7777778 C44.8182222,57.7777778 57.7777778,44.8182222 57.7777778,28.8888889" id="Fill-1"></path>
                        <path d="M23.7430556,9.3275 C14.8669444,11.6573889 8.66738889,19.7015 8.66738889,28.8896111 C8.66738889,32.4400556 9.60194444,35.9341667 11.3699444,38.9963889 C11.6371667,39.4586111 12.1225,39.7171667 12.6222778,39.7171667 C12.8678333,39.7171667 13.1162778,39.6550556 13.3430556,39.5236111 C14.0335,39.1235 14.2703889,38.2409444 13.8717222,37.5505 C12.3565,34.9288333 11.5562778,31.9330556 11.5562778,28.8896111 C11.5562778,21.0130556 16.8689444,14.1187222 24.4768333,12.1225 C25.2481667,11.9202778 25.7089444,11.1301667 25.5067222,10.3573889 C25.3059444,9.58605556 24.5115,9.12527778 23.7430556,9.3275" id="Fill-3"></path>
                        <path d="M74.3353003,71.0387887 L71.4363003,73.9377887 C70.5508559,74.2093442 69.2031892,73.9117887 68.5835226,73.292122 L52.0027448,56.7127887 C51.4394114,56.1494553 51.4394114,55.2336776 52.0027448,54.6703442 L55.0678559,51.6052331 C55.3394114,51.3336776 55.701967,51.1848998 56.0890781,51.1848998 C56.4776337,51.1848998 56.8401892,51.3336776 57.1103003,51.6052331 L73.6910781,68.1860109 C74.3381892,68.833122 74.616967,70.1316776 74.3353003,71.0387887 M75.7335226,66.1435664 L59.1527448,49.5627887 C57.521967,47.9305664 54.6561892,47.9305664 53.0254114,49.5627887 L49.9603003,52.6278998 C48.2717448,54.3164553 48.2717448,57.0666776 49.9603003,58.7552331 L66.5410781,75.3345664 C67.5420781,76.3370109 69.0804114,76.9350109 70.6563003,76.9350109 C71.4348559,76.9350109 72.1874114,76.7833442 72.8301892,76.4944553 L73.0743003,76.386122 L76.7836337,72.6767887 L76.891967,72.4326776 C77.7817448,70.4465664 77.2718559,67.6833442 75.7335226,66.1435664" id="Fill-5"></path>
                    </g>
                </g>
            </g>
        </g>
    </g>
</svg>