<?xml version="1.0" encoding="UTF-8" standalone="no"?>
<svg width="78px" height="66px" viewBox="0 0 78 66" version="1.1" xmlns="http://www.w3.org/2000/svg" xmlns:xlink="http://www.w3.org/1999/xlink">
    <!-- Generator: Sketch 40.3 (33839) - http://www.bohemiancoding.com/sketch -->
    <title>Fill-1</title>
    <desc>Created with Sketch.</desc>
    <defs></defs>
    <g id="Page-1" stroke="none" stroke-width="1" fill="none" fill-rule="evenodd">
        <g id="hanger" transform="translate(-1.000000, 0.000000)" fill="#FFB6B4">
            <g id="Page-1">
                <g id="Artboard">
                    <g id="Page-1">
                        <g id="Fill-1-Clipped">
                            <path d="M75.0079588,61.4279754 C74.0570249,62.3789092 72.792236,62.898878 71.4478123,62.898878 L8.55032862,62.898878 C7.20122046,62.898878 5.94111596,62.3789092 4.99018208,61.4279754 C4.0392482,60.4770414 3.51459503,59.2122526 3.51459503,57.8678288 C3.51459503,56.523405 4.0392482,55.2633005 4.99018208,54.3076823 L39.959253,19.3479802 L75.0079588,54.3076823 C75.9588926,55.2633005 76.4788615,56.523405 76.4788615,57.8678288 C76.4788615,59.2122526 75.9588926,60.4770414 75.0079588,61.4279754 M76.7833476,52.5322934 L41.2568328,17.0900977 L41.2568328,7.54796812 C41.2568328,3.38353355 37.8700091,0.00139434683 33.7102589,0.00139434683 C29.5458244,0.00139434683 26.1590008,3.38353355 26.1590008,7.54796812 L28.6745253,7.54796812 C28.6745253,4.77480134 30.9324078,2.51691894 33.7102589,2.51691894 C36.4787414,2.51691894 38.7413082,4.77480134 38.7413082,7.54796812 L38.7413082,17.0057785 L3.21479321,52.5322934 C1.7860502,53.9563521 0.999070435,55.8535354 0.999070435,57.8678288 C0.999070435,59.8821223 1.7860502,61.7793056 3.21479321,63.2033642 C4.63885183,64.6321072 6.53603518,65.419087 8.55032862,65.419087 L71.4478123,65.419087 C73.4621057,65.419087 75.3546046,64.6321072 76.7833476,63.2033642 C78.2120907,61.7793056 78.9990704,59.8821223 78.9990704,57.8678288 C78.9990704,55.8535354 78.2120907,53.9563521 76.7833476,52.5322934" id="Fill-1"></path>
                        </g>
                    </g>
                </g>
            </g>
        </g>
    </g>
</svg>