<?xml version="1.0" encoding="UTF-8"?>
<svg width="168px" height="50px" viewBox="0 0 168 50" version="1.1" xmlns="http://www.w3.org/2000/svg" xmlns:xlink="http://www.w3.org/1999/xlink">
    <!-- Generator: Sketch 41.2 (35397) - http://www.bohemiancoding.com/sketch -->
    <title>master-visa-amex</title>
    <desc>Created with Sketch.</desc>
    <defs>
        <radialGradient cx="17.5409177%" cy="17.466056%" fx="17.5409177%" fy="17.466056%" r="93.2873442%" id="radialGradient-1">
            <stop stop-color="#9DD5F6" offset="0%"></stop>
            <stop stop-color="#98D3F5" offset="7.11%"></stop>
            <stop stop-color="#89CEF3" offset="15.75%"></stop>
            <stop stop-color="#70C6EF" offset="25.16%"></stop>
            <stop stop-color="#4EBBEA" offset="35.14%"></stop>
            <stop stop-color="#23ADE3" offset="45.46%"></stop>
            <stop stop-color="#0DA6E0" offset="50%"></stop>
            <stop stop-color="#2E77BC" offset="100%"></stop>
        </radialGradient>
    </defs>
    <g id="Page-1" stroke="none" stroke-width="1" fill="none" fill-rule="evenodd">
        <g id="master-visa-amex">
            <g id="Layer_1-2">
                <rect id="Rectangle-path" fill="#424770" opacity="0.5" x="0" y="0" width="167.885906" height="50" rx="12"></rect>
                <g id="amex" transform="translate(122.821500, 8.915094)">
                    <rect id="Rectangle-path-Copy" fill="#FFFFFF" x="0.616137513" y="0.400119292" width="31.5" height="31.4899998"></rect>
                    <path d="M32.1788476,0.401043657 L0.615514315,0.401043657 L0.615514315,31.8901191 L32.1788476,31.8901191 L32.1788476,21.4979207 C32.30423,21.3177549 32.3661375,21.0872895 32.3661375,20.805523 C32.3661375,20.4830272 32.30423,20.2832756 32.1788476,20.115017" id="Shape" fill="url(#radialGradient-1)"></path>
                    <path d="M3.46057471,14.0268798 L2.85336578,12.5560631 L2.24962727,14.0268798 L3.46057471,14.0268798 Z M16.8373067,13.4412016 C16.7153947,13.5147592 16.571205,13.5172074 16.3984684,13.5172074 L15.3207397,13.5172074 L15.3207397,12.6977254 L16.4131336,12.6977254 C16.5677346,12.6977254 16.7290524,12.7046248 16.8338363,12.7642721 C16.9489194,12.8180214 17.0201186,12.9324195 17.0201186,13.0904402 C17.0201186,13.2516881 16.9523898,13.3814431 16.8373067,13.4412016 Z M24.525709,14.0268798 L23.9117832,12.5560631 L23.3012158,14.0268798 L24.525709,14.0268798 Z M10.194056,15.6188828 L9.28458595,15.6188828 L9.28122749,12.7293295 L7.99482673,15.6188828 L7.21588874,15.6188828 L5.92612952,12.72677 L5.92612952,15.6188828 L4.12174283,15.6188828 L3.7808595,14.795951 L1.93370846,14.795951 L1.58935473,15.6188828 L0.625813582,15.6188828 L2.21447542,11.9294331 L3.53255762,11.9294331 L5.04140015,15.422581 L5.04140015,11.9294331 L6.48934266,11.9294331 L7.65036105,14.4322808 L8.71689487,11.9294331 L10.193944,11.9294331 L10.193944,15.6188828 L10.194056,15.6188828 Z M13.818838,15.6188828 L10.8552241,15.6188828 L10.8552241,11.9294331 L13.818838,11.9294331 L13.818838,12.6977254 L11.7424163,12.6977254 L11.7424163,13.3627477 L13.7690209,13.3627477 L13.7690209,14.1190214 L11.7424163,14.1190214 L11.7424163,14.8558208 L13.818838,14.8558208 L13.818838,15.6188828 L13.818838,15.6188828 Z M17.9974295,12.9230718 C17.9974295,13.5113094 17.602475,13.8152211 17.3723088,13.9064725 C17.5664276,13.9799187 17.7322234,14.1096737 17.8111471,14.2171723 C17.9364175,14.4006767 17.9580236,14.5645953 17.9580236,14.8941019 L17.9580236,15.6188828 L17.0632188,15.6188828 L17.0598604,15.1536119 C17.0598604,14.931604 17.0812426,14.6123354 16.9198127,14.4348403 C16.7901763,14.3050853 16.5925871,14.2769309 16.2731979,14.2769309 L15.3208516,14.2769309 L15.3208516,15.6188828 L14.4337714,15.6188828 L14.4337714,11.9294331 L16.4742575,11.9294331 C16.9276491,11.9294331 17.2617036,11.9413403 17.5485158,12.1061492 C17.8291708,12.2709582 17.9974295,12.5115503 17.9974295,12.9230718 Z M19.417161,15.6188828 L18.511945,15.6188828 L18.511945,11.9294331 L19.417161,11.9294331 L19.417161,15.6188828 Z M29.9188303,15.6188828 L28.6616481,15.6188828 L26.980069,12.8497368 L26.980069,15.6188828 L25.1733314,15.6188828 L24.8280821,14.795951 L22.9851851,14.795951 L22.650235,15.6188828 L21.6121361,15.6188828 C21.1809103,15.6188828 20.6349373,15.5240703 20.3257354,15.210811 C20.0139587,14.8975516 19.8517452,14.4732326 19.8517452,13.8023123 C19.8517452,13.2551378 19.9486927,12.7549244 20.3299894,12.3596501 C20.6168016,12.0651974 21.0659392,11.9294331 21.6772902,11.9294331 L22.5361594,11.9294331 L22.5361594,12.7199818 L21.6953139,12.7199818 C21.3715587,12.7199818 21.1887467,12.7678331 21.0126517,12.93854 C20.8614092,13.0938899 20.7576329,13.3875636 20.7576329,13.7742692 C20.7576329,14.1695436 20.8366685,14.4545372 21.0015687,14.6407123 C21.138146,14.7867146 21.3863359,14.8310049 21.6198606,14.8310049 L22.0182855,14.8310049 L23.2686388,11.9295444 L24.5979158,11.9295444 L26.0999295,15.4192425 L26.0999295,11.9295444 L27.4507007,11.9295444 L29.010144,14.4990501 L29.010144,11.9295444 L29.9188303,11.9295444 L29.9188303,15.6188828 Z M0.615514315,16.3435524 L2.13129765,16.3435524 L2.47307657,15.5240703 L3.23824489,15.5240703 L3.57912822,16.3435524 L6.56154948,16.3435524 L6.56154948,15.7170337 L6.82776312,16.3462231 L8.37601154,16.3462231 L8.64222518,15.707686 L8.64222518,16.3435524 L16.0541146,16.3435524 L16.0506442,14.9983733 L16.1940503,14.9983733 C16.2944682,15.001823 16.3237987,15.0110595 16.3237987,15.1758684 L16.3237987,16.3435524 L20.1572528,16.3435524 L20.1572528,16.0304043 C20.4664547,16.1951019 20.9473856,16.3435524 21.5802308,16.3435524 L23.1929616,16.3435524 L23.5380989,15.5240703 L24.3032673,15.5240703 L24.6407921,16.3435524 L27.7485958,16.3435524 L27.7485958,15.5651335 L28.2192275,16.3435524 L30.7096349,16.3435524 L30.7096349,11.197864 L28.2449756,11.197864 L28.2449756,11.8055761 L27.8998383,11.197864 L25.3708086,11.197864 L25.3708086,11.8055761 L25.0538823,11.197864 L21.6377723,11.197864 C21.0659392,11.197864 20.5632902,11.2772082 20.1572528,11.4983259 L20.1572528,11.197864 L17.7998403,11.197864 L17.7998403,11.4983259 C17.541463,11.27042 17.1893849,11.197864 16.7979008,11.197864 L8.18536316,11.197864 L7.60748476,12.5269072 L7.01404551,11.197864 L4.3013083,11.197864 L4.3013083,11.8055761 L4.00330127,11.197864 L1.68977258,11.197864 L0.615402367,13.6444029 L0.615402367,16.3435524 L0.615514315,16.3435524 Z" id="Shape" fill="#FFFFFF"></path>
                    <path d="M32.1788476,19.0649583 L30.5619747,19.0649583 C30.4005449,19.0649583 30.2932982,19.0709675 30.2029557,19.1316163 C30.1093667,19.1913748 30.0733193,19.2800667 30.0733193,19.3971356 C30.0733193,19.5363496 30.152355,19.6310507 30.2673261,19.6720026 C30.3609151,19.7043857 30.4614449,19.7138447 30.609217,19.7138447 L31.090036,19.7266421 C31.575221,19.7385493 31.8990882,19.8214546 32.0965654,20.0236543 C32.1325009,20.0518087 32.154107,20.0834128 32.1788476,20.115017 L32.1788476,19.0649583 Z M32.1788476,21.4979207 C31.9633466,21.8111801 31.5434276,21.9699798 30.9749529,21.9699798 L29.2616923,21.9699798 L29.2616923,21.1786521 L30.9680121,21.1786521 C31.1372783,21.1786521 31.2557199,21.156507 31.3270311,21.0872895 C31.3888267,21.0302017 31.4319269,20.9472965 31.4319269,20.8465861 C31.4319269,20.7390875 31.3888267,20.653734 31.3235607,20.6025442 C31.2591903,20.5462355 31.1654893,20.5206406 31.0110003,20.5206406 C30.1779912,20.4924862 29.1387728,20.5462355 29.1387728,19.3784402 C29.1387728,18.8431729 29.4806637,18.2797511 30.4116278,18.2797511 L32.1787356,18.2797511 L32.1787356,17.5455113 L30.5368982,17.5455113 C30.041414,17.5455113 29.6814994,17.6634704 29.4265925,17.8468634 L29.4265925,17.5455113 L26.9980927,17.5455113 C26.6097432,17.5455113 26.1538887,17.641214 25.9382758,17.8468634 L25.9382758,17.5455113 L21.601613,17.5455113 L21.601613,17.8468634 C21.2564756,17.5993719 20.6741192,17.5455113 20.4053308,17.5455113 L17.5448215,17.5455113 L17.5448215,17.8468634 C17.271779,17.5840149 16.6645701,17.5455113 16.2944682,17.5455113 L13.0930755,17.5455113 L12.3604842,18.3336117 L11.6743516,17.5455113 L6.89213354,17.5455113 L6.89213354,22.6947606 L11.584345,22.6947606 L12.339214,21.8941966 L13.0503112,22.6947606 L15.9426139,22.6973201 L15.9426139,21.4860135 L16.2269632,21.4860135 C16.6107228,21.4919115 17.0633308,21.4765545 17.4626513,21.3049574 L17.4626513,22.6946494 L19.8482748,22.6946494 L19.8482748,21.3525862 L19.9633579,21.3525862 C20.1102344,21.3525862 20.1246758,21.3585954 20.1246758,21.5044864 L20.1246758,22.6945381 L27.371777,22.6945381 C27.8318855,22.6945381 28.3128164,22.5774692 28.579142,22.3650315 L28.579142,22.6945381 L30.8778935,22.6945381 C31.3562497,22.6945381 31.823411,22.6278801 32.1788476,22.4571732 L32.1788476,21.4979207 Z M28.6400421,20.0236543 C28.8127787,20.201372 28.9053601,20.4257168 28.9053601,20.805523 C28.9053601,21.5994101 28.4064054,21.9699798 27.5117126,21.9699798 L25.7837868,21.9699798 L25.7837868,21.1786521 L27.5047718,21.1786521 C27.6730305,21.1786521 27.7923676,21.156507 27.8671493,21.0872895 C27.9281612,21.0302017 27.9719331,20.9472965 27.9719331,20.8465861 C27.9719331,20.7390875 27.9245789,20.653734 27.8636789,20.6025442 C27.7958381,20.5462355 27.7022491,20.5206406 27.5477601,20.5206406 C26.7181094,20.4924862 25.6791149,20.5462355 25.6791149,19.3784402 C25.6791149,18.8431729 26.0174234,18.2797511 26.947492,18.2797511 L28.7260185,18.2797511 L28.7260185,19.0651808 L27.0986225,19.0651808 C26.9373046,19.0651808 26.8324089,19.0711901 26.7431859,19.1318389 C26.6460145,19.1915974 26.6099671,19.2802893 26.6099671,19.3973582 C26.6099671,19.5365722 26.6924732,19.6312733 26.8040859,19.6722252 C26.8976749,19.7046083 26.9982047,19.7140673 27.1493352,19.7140673 L27.6269077,19.7268647 C28.1085103,19.7385493 28.4390944,19.8213433 28.6400421,20.0236543 Z M20.6348253,19.7957484 C20.5161598,19.8657449 20.3693953,19.8717541 20.1967706,19.8717541 L19.119042,19.8717541 L19.119042,19.0429244 L20.2114359,19.0429244 C20.3693953,19.0429244 20.5274666,19.0462629 20.6348253,19.1095824 C20.7497965,19.169341 20.8185329,19.2836278 20.8185329,19.4415372 C20.8185329,19.5994466 20.7497965,19.7266421 20.6348253,19.7957484 Z M21.1706111,20.25501 C21.3680883,20.3274547 21.5295181,20.457321 21.6051953,20.5648196 C21.7304657,20.7449854 21.7486014,20.9131328 21.7521838,21.2384107 L21.7521838,21.9699798 L20.8615211,21.9699798 L20.8615211,21.50827 C20.8615211,21.286262 20.8830152,20.9575344 20.718115,20.7859373 C20.5884786,20.653734 20.3908894,20.6221299 20.0672462,20.6221299 L19.1191539,20.6221299 L19.1191539,21.9699798 L18.2277076,21.9699798 L18.2277076,18.2796399 L20.2759183,18.2796399 C20.7250558,18.2796399 21.0521695,18.2993368 21.3433477,18.4537965 C21.623331,18.6219439 21.799426,18.852298 21.799426,19.2732785 C21.7993141,19.8622951 21.4041357,20.1628683 21.1706111,20.25501 Z M22.291328,18.2796399 L25.2522551,18.2796399 L25.2522551,19.0428131 L23.1748259,19.0428131 L23.1748259,19.7137334 L25.2015424,19.7137334 L25.2015424,20.4666687 L23.1748259,20.4666687 L23.1748259,21.2009086 L25.2522551,21.204247 L25.2522551,21.9699798 L22.291328,21.9699798 L22.291328,18.2796399 L22.291328,18.2796399 Z M16.305775,19.9827025 L15.1593099,19.9827025 L15.1593099,19.0429244 L16.3160742,19.0429244 C16.636359,19.0429244 16.8586888,19.1726794 16.8586888,19.4953978 C16.8586888,19.8145551 16.6466583,19.9827025 16.305775,19.9827025 Z M14.2757,21.6343527 L12.913622,20.1311529 L14.2757,18.6756932 L14.2757,21.6343527 Z M10.7581647,21.2009086 L8.57695918,21.2009086 L8.57695918,20.4666687 L10.52464,20.4666687 L10.52464,19.7137334 L8.57695918,19.7137334 L8.57695918,19.0428131 L10.8011529,19.0428131 L11.7715229,20.1182442 L10.7581647,21.2009086 Z M17.8111471,19.4953978 C17.8111471,20.5205293 17.0417247,20.732188 16.2662571,20.732188 L15.1593099,20.732188 L15.1593099,21.9699798 L13.4349664,21.9699798 L12.3425725,20.7483239 L11.2073023,21.9699798 L7.69323735,21.9699798 L7.69323735,18.2796399 L11.2613734,18.2796399 L12.3528717,19.4892772 L13.4813131,18.2796399 L16.3160742,18.2796399 C17.0201186,18.2796399 17.8111471,18.4733822 17.8111471,19.4953978 Z" id="Shape" fill="#FFFFFF"></path>
                </g>
                <rect id="Rectangle-path" fill="#FFFFFF" x="60.2101538" y="7.22641509" width="56.84532" height="35.884756"></rect>
                <rect id="Rectangle-path" fill="#F7B600" x="61.1385322" y="37.2901029" width="54.9528565" height="4.89821595"></rect>
                <rect id="Rectangle-path" fill="#1A1F71" x="61.1385322" y="8.18476169" width="54.9528565" height="4.89821595"></rect>
                <path d="M83.1339575,18.4781141 L77.4565669,31.9304608 L73.7430535,31.9304608 L70.9579185,21.1756823 C70.7793842,20.5012902 70.6365568,20.2883243 70.1366607,20.0043698 C69.0365779,19.4780516 67.8722847,19.0962412 66.6730954,18.8685516 L66.7445091,18.4781141 L72.7075546,18.4781141 C73.5135806,18.4817304 74.1962002,19.0698126 74.3143633,19.8623925 L75.7783445,27.6356482 L79.4204442,18.4781141 L83.1339575,18.4781141 Z M97.6666493,27.5291653 C97.6666493,23.9797334 92.7391027,23.7667675 92.7748095,22.2050175 C92.7748095,21.708097 93.2389987,21.2111766 94.2744976,21.0691993 C95.4625247,20.9589296 96.6585663,21.1672974 97.738063,21.6726027 L98.3450796,18.8330572 C97.2966973,18.4328853 96.1830644,18.2283302 95.0600485,18.2296538 C91.5964832,18.2296538 89.1684168,20.0753584 89.1327099,22.6664436 C89.097003,24.6186312 90.882346,25.6834607 92.2034998,26.3223584 C93.5246536,26.9612562 94.0245496,27.4226823 94.0245496,27.9905914 C94.0245496,28.8779494 92.917637,29.3038812 91.9178449,29.3038812 C90.6614478,29.3384063 89.4179235,29.0446742 88.3114521,28.4520176 L87.6687287,31.398046 C88.9051664,31.8913648 90.228695,32.1327686 91.5607763,32.1079324 C95.2385828,32.1434267 97.6309424,30.3332164 97.6666493,27.5291653 L97.6666493,27.5291653 Z M106.807605,31.9304608 L110.056929,31.9304608 L107.236088,18.4781141 L104.236711,18.4781141 C103.578472,18.4702752 102.982913,18.8649512 102.737023,19.471955 L97.4524081,31.9304608 L101.130215,31.9304608 L101.844352,29.9072846 L106.343416,29.9072846 L106.807605,31.9304608 Z M102.879851,27.1742221 L104.736607,22.1340289 L105.807813,27.1742221 L102.879851,27.1742221 Z M88.1329178,18.4781141 L85.2406622,31.9304608 L81.74139,31.9304608 L84.6336456,18.4781141 L88.1329178,18.4781141 Z" id="Shape" fill="#1A1F71"></path>
                <path d="M19.6828685,40.9105233 L19.6828685,38.7808642 C19.7159714,38.4203438 19.588765,38.0634698 19.3347022,37.8040936 C19.0806393,37.5447174 18.7251477,37.4087982 18.3617147,37.4320801 C17.8797339,37.4130276 17.4215367,37.6407625 17.1476815,38.0354835 C16.90934,37.6387653 16.4691862,37.4063254 16.005062,37.4320801 C15.5978652,37.4144308 15.2089313,37.6010744 14.9695631,37.9290006 L14.9695631,37.5030688 L14.2911328,37.5030688 L14.2911328,40.9105233 L14.9695631,40.9105233 L14.9695631,38.9583358 C14.9409976,38.7217401 15.0206939,38.4848826 15.186708,38.3129806 C15.3527221,38.1410786 15.5875479,38.052259 15.8265277,38.0709779 C16.3264237,38.0709779 16.6120786,38.3904267 16.6120786,38.9583358 L16.6120786,40.9105233 L17.2905089,40.9105233 L17.2905089,38.9583358 C17.2619435,38.7217401 17.3416397,38.4848826 17.5076538,38.3129806 C17.6736679,38.1410786 17.9084938,38.052259 18.1474736,38.0709779 C18.6473696,38.0709779 18.9330245,38.3904267 18.9330245,38.9583358 L18.9330245,40.9105233 L19.6828685,40.9105233 Z M30.8234086,37.5385631 L29.5736685,37.5385631 L29.5736685,36.5092279 L28.8952382,36.5092279 L28.8952382,37.5385631 L28.181101,37.5385631 L28.181101,38.1419665 L28.8952382,38.1419665 L28.8952382,39.7392108 C28.8952382,40.5200858 29.1808931,40.981512 30.0378577,40.981512 C30.3630602,40.975122 30.6817646,40.8898277 30.9662361,40.7330518 L30.7519949,40.1296483 C30.5595055,40.249297 30.336263,40.3109397 30.1092714,40.3071199 C29.9572501,40.3195807 29.8078241,40.2623639 29.7034975,40.1517446 C29.599171,40.0411254 29.5513615,39.8892101 29.5736685,39.7392108 L29.5736685,38.1064722 L30.8234086,38.1064722 L30.8234086,37.5385631 Z M37.1792296,37.4320801 C36.8035068,37.4243744 36.4511994,37.6129493 36.2508512,37.9290006 L36.2508512,37.5030688 L35.5724209,37.5030688 L35.5724209,40.9105233 L36.2508512,40.9105233 L36.2508512,38.9938301 C36.2508512,38.4259211 36.5365061,38.0709779 37.0006953,38.0709779 C37.1576176,38.0772196 37.3133313,38.101033 37.4648845,38.1419665 L37.6791256,37.5030688 C37.5154538,37.4620714 37.3479025,37.438278 37.1792296,37.4320801 Z M27.5740844,37.7870233 C27.1560572,37.5329177 26.6709715,37.4092771 26.1815169,37.4320801 C25.3245523,37.4320801 24.7889494,37.8225176 24.7889494,38.4969097 C24.7889494,39.0648188 25.1817248,39.3842677 25.9315689,39.4907506 L26.2886375,39.5262449 C26.6814129,39.5972336 26.931361,39.7392108 26.931361,39.9166824 C26.931361,40.1651427 26.6457061,40.3426143 26.1101032,40.3426143 C25.7005158,40.3510938 25.2993336,40.2264706 24.9674837,39.9876711 L24.6104151,40.5200858 C25.0442038,40.8052037 25.5544132,40.9536444 26.0743963,40.9460177 C27.0741884,40.9460177 27.6097913,40.4845915 27.6097913,39.8456938 C27.6097913,39.2067961 27.181309,38.9583358 26.4314649,38.8518529 L26.0743963,38.8163586 C25.7530346,38.7808642 25.4673797,38.6743813 25.4673797,38.4614154 C25.4673797,38.2484495 25.7530346,38.0354835 26.1458101,38.0354835 C26.5193866,38.0516805 26.8849297,38.1485785 27.2170158,38.3194381 L27.5740844,37.7870233 Z M37.9647805,39.2067961 C37.9352312,39.6858825 38.1138196,40.1545572 38.4552533,40.4939586 C38.7966871,40.83336 39.2681682,41.0108853 39.7501235,40.981512 C40.1893683,41.004469 40.6216792,40.8654362 40.9641567,40.5910745 L40.6070881,40.0586597 C40.3548411,40.2631422 40.0398989,40.3758465 39.7144166,40.3781086 C39.1183151,40.3312265 38.658629,39.8366954 38.658629,39.2422904 C38.658629,38.6478853 39.1183151,38.1533542 39.7144166,38.1064722 C40.0398989,38.1087342 40.3548411,38.2214385 40.6070881,38.4259211 L40.9641567,37.8935063 C40.6216792,37.6191446 40.1893683,37.4801118 39.7501235,37.5030688 C39.2740985,37.4462779 38.7975468,37.6047216 38.4516841,37.9347735 C38.1058214,38.2648253 37.9271186,38.7316815 37.9647805,39.2067961 L37.9647805,39.2067961 Z M33.1443545,37.4320801 C32.1445624,37.4320801 31.4661321,38.1419665 31.4661321,39.2067961 C31.4352072,39.6799926 31.6083269,40.1439117 31.9422163,40.4825872 C32.2761058,40.8212627 32.7392105,41.0026879 33.2157682,40.981512 C33.7195944,40.9919159 34.2115545,40.8289054 34.6083357,40.5200858 L34.2512671,40.0231654 C33.9644348,40.2441212 33.6142233,40.3684522 33.2514751,40.3781086 C32.7256262,40.3980136 32.2736489,40.0106972 32.2159761,39.4907506 L34.7511631,39.4907506 L34.7511631,39.2067961 C34.7511631,38.1419665 34.1084397,37.4320801 33.1443545,37.4320801 L33.1443545,37.4320801 Z M33.1443545,38.0709779 C33.3780355,38.0602721 33.6058927,38.1453904 33.7746462,38.3064295 C33.9433997,38.4674685 34.0382528,38.6903081 34.037026,38.9228415 L32.1802693,38.9228415 C32.2128097,38.4243978 32.6425691,38.0446633 33.1443545,38.0709779 L33.1443545,38.0709779 Z M23.8962779,39.2067961 L23.8962779,37.5030688 L23.2178476,37.5030688 L23.2178476,37.9290006 C22.9526441,37.5936212 22.5393992,37.4081054 22.1109349,37.4320801 C21.1249173,37.4320801 20.325592,38.2266475 20.325592,39.2067961 C20.325592,40.1869446 21.1249173,40.981512 22.1109349,40.981512 C22.5393992,41.0054867 22.9526441,40.8199709 23.2178476,40.4845915 L23.2178476,40.9105233 L23.8962779,40.9105233 L23.8962779,39.2067961 Z M21.1111429,39.2067961 C21.1499456,38.6295281 21.6453393,38.1886796 22.2268023,38.2139761 C22.8082652,38.2392726 23.2630201,38.7214571 23.2509404,39.2998877 C23.2388607,39.8783182 22.7643668,40.341327 22.1823487,40.3426143 C21.8833682,40.349854 21.5954746,40.2299892 21.3909289,40.0131059 C21.1863833,39.7962225 21.0846059,39.5029124 21.1111429,39.2067961 L21.1111429,39.2067961 Z M47.4985119,37.4320801 C47.1227892,37.4243744 46.7704817,37.6129493 46.5701336,37.9290006 L46.5701336,37.5030688 L45.8917033,37.5030688 L45.8917033,40.9105233 L46.5701336,40.9105233 L46.5701336,38.9938301 C46.5701336,38.4259211 46.8557885,38.0709779 47.3199776,38.0709779 C47.4769,38.0772196 47.6326136,38.101033 47.7841668,38.1419665 L47.998408,37.5030688 C47.8347362,37.4620714 47.6671848,37.438278 47.4985119,37.4320801 L47.4985119,37.4320801 Z M44.8562043,39.2067961 L44.8562043,37.5030688 L44.177774,37.5030688 L44.177774,37.9290006 C43.9125705,37.5936212 43.4993256,37.4081054 43.0708614,37.4320801 C42.0848437,37.4320801 41.2855184,38.2266475 41.2855184,39.2067961 C41.2855184,40.1869446 42.0848437,40.981512 43.0708614,40.981512 C43.4993256,41.0054867 43.9125705,40.8199709 44.177774,40.4845915 L44.177774,40.9105233 L44.8562043,40.9105233 L44.8562043,39.2067961 Z M42.1067762,39.2067961 C42.1455789,38.6295281 42.6409726,38.1886796 43.2224356,38.2139761 C43.8038985,38.2392726 44.2586534,38.7214571 44.2465737,39.2998877 C44.234494,39.8783182 43.7600001,40.341327 43.1779819,40.3426143 C42.4995516,40.3781086 42.1067762,39.8456938 42.1067762,39.2067961 L42.1067762,39.2067961 Z M51.783335,39.2067961 L51.783335,36.1542847 L51.1049047,36.1542847 L51.1049047,37.9290006 C50.8397012,37.5936212 50.4264563,37.4081054 49.9979921,37.4320801 C49.0119744,37.4320801 48.2126491,38.2266475 48.2126491,39.2067961 C48.2126491,40.1869446 49.0119744,40.981512 49.9979921,40.981512 C50.4264563,41.0054867 50.8397012,40.8199709 51.1049047,40.4845915 L51.1049047,40.9105233 L51.783335,40.9105233 L51.783335,39.2067961 Z M48.9982,39.2067961 C49.0370028,38.6295281 49.5323964,38.1886796 50.1138594,38.2139761 C50.6953224,38.2392726 51.1500773,38.7214571 51.1379975,39.2998877 C51.1259178,39.8783182 50.6514239,40.341327 50.0694058,40.3426143 C49.7704254,40.349854 49.4825318,40.2299892 49.2779861,40.0131059 C49.0734404,39.7962225 48.971663,39.5029124 48.9982,39.2067961 Z" id="_Compound_Path_" fill="#FFFFFF"></path>
                <g id="_Group_" transform="translate(11.863066, 8.788165)">
                    <rect id="Rectangle-path" fill="#FF5F00" x="14.9254672" y="2.8750398" width="12.3902802" height="20.0897843"></rect>
                    <path d="M16.2109141,12.9199319 C16.2119936,9.00454594 18.0138923,5.30453133 21.1027539,2.8750398 C16.6760166,-0.584783352 10.4992414,-0.777750437 5.86268441,2.39892861 C1.22612739,5.57560765 -0.790677567,11.3823036 0.886584907,16.7258951 C2.56384738,22.0694865 7.54465869,25.7058199 13.1758311,25.6978866 C16.0523104,25.6998991 18.8453046,24.7369242 21.1027539,22.9648241 C18.0138923,20.5353325 16.2119936,16.8353179 16.2109141,12.9199319 L16.2109141,12.9199319 Z" id="_Path_" fill="#EB001B"></path>
                    <path d="M41.9198528,12.9199319 C41.9143835,17.8056668 39.1067491,22.2606296 34.6866105,24.3971475 C30.2664719,26.5336653 25.0076613,25.9776988 21.1384607,22.9648241 C24.2281316,20.5359877 26.0302047,16.8355426 26.0302047,12.9199319 C26.0302047,9.00432124 24.2281316,5.30387619 21.1384607,2.8750398 C25.0076613,-0.137834954 30.2664719,-0.693801461 34.6866105,1.4427164 C39.1067491,3.57923425 41.9143835,8.03419702 41.9198528,12.9199319 L41.9198528,12.9199319 Z" id="Shape" fill="#F79E1B"></path>
                </g>
            </g>
        </g>
    </g>
</svg>