<?xml version="1.0" encoding="UTF-8"?>
<svg width="100px" height="50px" viewBox="0 0 100 50" version="1.1" xmlns="http://www.w3.org/2000/svg" xmlns:xlink="http://www.w3.org/1999/xlink">
    <!-- Generator: Sketch 41.2 (35397) - http://www.bohemiancoding.com/sketch -->
    <title>powered_by_stripe_small</title>
    <desc>Created with Sketch.</desc>
    <defs></defs>
    <g id="Page-1" stroke="none" stroke-width="1" fill="none" fill-rule="evenodd" opacity="0.5">
        <g id="powered_by_stripe_small" fill="#424770">
            <path d="M0,12.0080469 C0,5.3761857 5.37643433,0 12.0002187,0 L87.9997813,0 C94.6273191,0 100,5.3746078 100,12.0080469 L100,37.9919531 C100,44.6238143 94.6235657,50 87.9997813,50 L12.0002187,50 C5.37268092,50 0,44.6253922 0,37.9919531 L0,12.0080469 Z M17.3055827,19.9302605 C18.9617908,19.9302605 21.067075,20.4416902 22.7252023,21.3463784 L22.7252023,16.1642782 C20.9193021,15.4378155 19.1153211,15.1588539 17.309421,15.1588539 C12.8896675,15.1588539 9.94380487,17.4893461 9.94380487,21.3831858 C9.94380487,27.4719114 18.2267645,26.4839222 18.2267645,29.1088739 C18.2267645,30.1259216 17.3516418,30.4552514 16.1368333,30.4552514 C14.3309332,30.4552514 12.0011109,29.7016674 10.1721812,28.6981804 L10.1721812,33.950021 C12.1987811,34.8295251 14.2522489,35.1975995 16.1310759,35.1975995 C20.6621389,35.1975995 23.7845613,32.938785 23.7845613,28.9790793 C23.7845613,22.4196059 15.4536235,23.597444 15.4536235,21.1216593 C15.4536235,20.2634647 16.1637011,19.9302605 17.3055827,19.9302605 Z M34.7139995,15.5249911 L30.5763579,15.5249911 L30.5725196,10.7477727 L25.2526948,11.8907406 L25.2277461,29.5370026 C25.2277461,32.7934925 27.655444,35.1975995 30.8891759,35.1975995 C32.6701274,35.1975995 33.9866497,34.8721443 34.7120803,34.4691996 L34.7120803,29.9922525 C34.0154366,30.2731514 30.5763579,31.2824502 30.5763579,28.0414581 L30.5763579,20.2150339 L34.7139995,20.2150339 L34.7139995,15.5249911 Z M46.4110891,15.5269283 C45.6856584,15.2634645 43.1389746,14.7830305 41.862754,17.1503302 L41.5211491,15.5249911 L36.809688,15.5249911 L36.809688,34.8043411 L42.2561754,34.8043411 L42.2561754,21.7338251 C43.5439108,20.0271222 45.7182836,20.356452 46.4110891,20.5831083 L46.4110891,15.5269283 Z M53.5579245,8.19449865 L48.0884076,9.36846229 L48.0884076,13.8492839 L53.5579245,12.6753203 L53.5579245,8.19449865 Z M53.5579245,15.5249911 L48.0884076,15.5249911 L48.0884076,34.8043411 L53.5579245,34.8043411 L53.5579245,15.5249911 Z M65.3145071,15.1588539 C63.1785169,15.1588539 61.7986633,16.1739644 61.0463648,16.8829919 L60.7623338,15.5249911 L55.9645119,15.5249911 L55.9664311,41.2010868 L61.4148376,40.0309977 L61.4263523,33.8066657 C62.2093568,34.3858986 63.374268,35.1975995 65.281882,35.1975995 C69.1796324,35.1975995 72.7453736,32.0321596 72.7453736,25.0426203 C72.7453736,18.6381257 69.1412498,15.1588539 65.3145071,15.1588539 Z M82.440812,15.1588539 C77.2572453,15.1588539 74.1021976,19.6067425 74.1021976,25.2092224 C74.1021976,31.8423107 77.8214691,35.1975995 83.1297792,35.1975995 C85.7340369,35.1975995 87.6896291,34.6009315 89.1692773,33.7717955 L89.1692773,29.341342 C87.6838717,30.0968631 85.9796854,30.5579248 83.8168273,30.5579248 C81.6923518,30.5579248 79.8212013,29.7985291 79.5774719,27.220071 L90.2459085,27.220071 C90.2708572,26.9236743 90.3188354,25.7710202 90.3188354,25.2382809 C90.3188354,19.6048053 87.6167022,15.1588539 82.440812,15.1588539 Z M82.4062677,19.64355 C83.7439004,19.64355 85.1640557,20.6838445 85.1640557,23.1596292 L79.5294937,23.1596292 C79.5294937,20.6819072 81.0436863,19.64355 82.4062677,19.64355 Z M64.0114187,30.3390173 C62.733279,30.3390173 61.9713849,29.8740812 61.4417054,29.2948484 L61.4090802,21.1216593 C61.9771423,20.4920583 62.7620659,20.0309967 64.0114187,20.0309967 C66.0053935,20.0309967 67.3775705,22.2859368 67.3775705,25.1627288 C67.3775705,28.1247592 66.0265039,30.3390173 64.0114187,30.3390173 Z" id="Combined-Shape"></path>
        </g>
    </g>
</svg>