<?xml version="1.0" encoding="UTF-8"?>
<svg width="229px" height="50px" viewBox="0 0 229 50" version="1.1" xmlns="http://www.w3.org/2000/svg" xmlns:xlink="http://www.w3.org/1999/xlink">
    <!-- Generator: Sketch 41.2 (35397) - http://www.bohemiancoding.com/sketch -->
    <title>powered_by_stripe</title>
    <desc>Created with Sketch.</desc>
    <defs></defs>
    <g id="Page-1" stroke="none" stroke-width="1" fill="none" fill-rule="evenodd" opacity="0.502">
        <g id="powered_by_stripe" transform="translate(0.547170, 0.000000)" fill="#424770">
            <path d="M216.790867,50 L11.5110195,50 C5.15309973,50 5.68434189e-14,44.8346154 5.68434189e-14,38.4615385 L5.68434189e-14,11.5384615 C5.68434189e-14,5.16538462 5.15309973,0 11.5110195,0 L216.790867,0 C223.148787,0 228.301887,5.16538462 228.301887,11.5384615 L228.301887,38.4615385 C228.301887,44.8346154 223.148787,50 216.790867,50 Z M21.3560646,17.2258823 L16.4488524,17.2258823 L16.4488524,31.2533917 L19.0339188,31.2533917 L19.0339188,26.216584 L21.3560646,26.216584 C24.1848603,26.216584 26.2037838,24.3820236 26.2037838,21.7318879 C26.2037838,19.0817522 24.1848603,17.2258823 21.3560646,17.2258823 Z M32.707711,20.8155764 C29.6582155,20.8155764 27.4972765,23.0162739 27.4972765,26.1565297 C27.4972765,29.275476 29.6582155,31.4974831 32.707711,31.4974831 C35.7572066,31.4974831 37.8989543,29.275476 37.8989543,26.1565297 C37.8989543,23.0162739 35.7572066,20.8155764 32.707711,20.8155764 Z M51.6936516,21.0596678 L49.6536178,27.9910901 L47.6135839,21.0596678 L45.2722469,21.0596678 L43.232213,27.9910901 L41.1921792,21.0596678 L38.6071128,21.0596678 L42.0807358,31.2533917 L44.4028815,31.2533917 L46.4429154,24.3219694 L48.5040597,31.2533917 L50.8262054,31.2533917 L54.278718,21.0596678 L51.6936516,21.0596678 Z M59.9766112,20.8155764 C57.0883225,20.8155764 54.9887957,22.9969015 54.9887957,26.0751659 C54.9887957,29.2541665 57.1286242,31.4974831 60.1781198,31.4974831 C61.3084866,31.4974831 62.4599638,31.2320821 63.6114411,30.7032173 L63.6114411,28.5199549 C62.5616776,29.1321207 61.5311055,29.4788856 60.6022472,29.4788856 C58.9057374,29.4788856 57.6947672,28.4192187 57.5316412,26.8694317 L64.3790926,26.8694317 C64.4193943,26.5226669 64.4193943,26.1972116 64.4193943,25.910501 C64.4193943,22.9155377 62.6211706,20.8155764 59.9766112,20.8155764 Z M72.3972124,20.9163125 C72.1151005,20.8349487 71.8329886,20.8155764 71.5489575,20.8155764 C70.6815113,20.8155764 69.7929547,21.2630773 69.0656049,22.0786527 L69.0656049,21.0596678 L66.4805385,21.0596678 L66.4805385,31.2533917 L69.0656049,31.2533917 L69.0656049,24.4440151 C69.7315426,23.5877578 70.6412096,23.1189473 71.4894645,23.1189473 C71.7926869,23.1189473 72.1151005,23.1596292 72.3972124,23.240993 L72.3972124,20.9163125 Z M78.3158054,20.8155764 C75.4275167,20.8155764 73.3279898,22.9969015 73.3279898,26.0751659 C73.3279898,29.2541665 75.4697375,31.4974831 78.5192331,31.4974831 C79.6495999,31.4974831 80.8010771,31.2320821 81.9525544,30.7032173 L81.9525544,28.5199549 C80.9008718,29.1321207 79.8722188,29.4788856 78.9414414,29.4788856 C77.2468507,29.4788856 76.0339614,28.4192187 75.8727545,26.8694317 L82.7182867,26.8694317 C82.7585884,26.5226669 82.7585884,26.1972116 82.7585884,25.910501 C82.7585884,22.9155377 80.962284,20.8155764 78.3158054,20.8155764 Z M93.8684247,16.5943441 L91.2622479,16.5943441 L91.2622479,21.7531975 C90.4754051,21.1410316 89.5868485,20.8155764 88.6982919,20.8155764 C86.0115117,20.8155764 84.1346038,23.0162739 84.1346038,26.1565297 C84.1346038,29.2948484 86.0115117,31.4974831 88.6982919,31.4974831 C89.5868485,31.4974831 90.4754051,31.1720278 91.2622479,30.5385524 L91.2622479,31.2533917 L93.8684247,31.2533917 L93.8684247,16.5943441 Z M106.876279,20.8155764 C106.008833,20.8155764 105.120276,21.1410316 104.312323,21.7531975 L104.312323,16.5943441 L101.727257,16.5943441 L101.727257,31.2533917 L104.312323,31.2533917 L104.312323,30.5385524 C105.120276,31.1720278 106.008833,31.4974831 106.876279,31.4974831 C109.582251,31.4974831 111.439967,29.2948484 111.439967,26.1565297 C111.439967,23.0162739 109.582251,20.8155764 106.876279,20.8155764 Z M119.580911,21.0596678 L117.137861,27.7469986 L114.714001,21.0596678 L112.067522,21.0596678 L115.924971,30.8853173 L113.986651,35.7167782 L116.491114,35.7167782 L122.22739,21.0596678 L119.580911,21.0596678 Z M140.305583,19.9302605 C141.961791,19.9302605 144.067075,20.4416902 145.725202,21.3463784 L145.725202,16.1642782 C143.919302,15.4378155 142.115321,15.1588539 140.309421,15.1588539 C135.889667,15.1588539 132.943805,17.4893461 132.943805,21.3831858 C132.943805,27.4719114 141.226764,26.4839222 141.226764,29.1088739 C141.226764,30.1259216 140.351642,30.4552514 139.136833,30.4552514 C137.330933,30.4552514 135.001111,29.7016674 133.172181,28.6981804 L133.172181,33.950021 C135.198781,34.8295251 137.252249,35.1975995 139.131076,35.1975995 C143.662139,35.1975995 146.784561,32.938785 146.784561,28.9790793 C146.784561,22.4196059 138.453623,23.597444 138.453623,21.1216593 C138.453623,20.2634647 139.163701,19.9302605 140.305583,19.9302605 Z M157.713999,15.5249911 L153.576358,15.5249911 L153.57252,10.7477727 L148.252695,11.8907406 L148.227746,29.5370026 C148.227746,32.7934925 150.655444,35.1975995 153.889176,35.1975995 C155.670127,35.1975995 156.98665,34.8721443 157.71208,34.4691996 L157.71208,29.9922525 C157.015437,30.2731514 153.576358,31.2824502 153.576358,28.0414581 L153.576358,20.2150339 L157.713999,20.2150339 L157.713999,15.5249911 Z M169.411089,15.5269283 C168.685658,15.2634645 166.138975,14.7830305 164.862754,17.1503302 L164.521149,15.5249911 L159.809688,15.5249911 L159.809688,34.8043411 L165.256175,34.8043411 L165.256175,21.7338251 C166.543911,20.0271222 168.718284,20.356452 169.411089,20.5831083 L169.411089,15.5269283 Z M176.557925,8.19449865 L171.088408,9.36846229 L171.088408,13.8492839 L176.557925,12.6753203 L176.557925,8.19449865 Z M176.557925,15.5249911 L171.088408,15.5249911 L171.088408,34.8043411 L176.557925,34.8043411 L176.557925,15.5249911 Z M188.314507,15.1588539 C186.178517,15.1588539 184.798663,16.1739644 184.046365,16.8829919 L183.762334,15.5249911 L178.964512,15.5249911 L178.966431,41.2010868 L184.414838,40.0309977 L184.426352,33.8066657 C185.209357,34.3858986 186.374268,35.1975995 188.281882,35.1975995 C192.179632,35.1975995 195.745374,32.0321596 195.745374,25.0426203 C195.745374,18.6381257 192.14125,15.1588539 188.314507,15.1588539 Z M205.440812,15.1588539 C200.257245,15.1588539 197.102198,19.6067425 197.102198,25.2092224 C197.102198,31.8423107 200.821469,35.1975995 206.129779,35.1975995 C208.734037,35.1975995 210.689629,34.6009315 212.169277,33.7717955 L212.169277,29.341342 C210.683872,30.0968631 208.979685,30.5579248 206.816827,30.5579248 C204.692352,30.5579248 202.821201,29.7985291 202.577472,27.220071 L213.245909,27.220071 C213.270857,26.9236743 213.318835,25.7710202 213.318835,25.2382809 C213.318835,19.6048053 210.616702,15.1588539 205.440812,15.1588539 Z M205.406268,19.64355 C206.7439,19.64355 208.164056,20.6838445 208.164056,23.1596292 L202.529494,23.1596292 C202.529494,20.6819072 204.043686,19.64355 205.406268,19.64355 Z M187.011419,30.3390173 C185.733279,30.3390173 184.971385,29.8740812 184.441705,29.2948484 L184.40908,21.1216593 C184.977142,20.4920583 185.762066,20.0309967 187.011419,20.0309967 C189.005393,20.0309967 190.377571,22.2859368 190.377571,25.1627288 C190.377571,28.1247592 189.026504,30.3390173 187.011419,30.3390173 Z M106.331247,29.2541665 C105.625007,29.2541665 104.916849,28.9480835 104.312323,28.3378549 L104.312323,23.9752046 C104.916849,23.3630387 105.625007,23.0569558 106.331247,23.0569558 C107.785946,23.0569558 108.795408,24.3219694 108.795408,26.1565297 C108.795408,27.9910901 107.785946,29.2541665 106.331247,29.2541665 Z M89.2644349,29.2541665 C87.7886249,29.2541665 86.7791631,27.9910901 86.7791631,26.1565297 C86.7791631,24.3219694 87.7886249,23.0569558 89.2644349,23.0569558 C89.9706742,23.0569558 90.6769136,23.3630387 91.2622479,23.9752046 L91.2622479,28.3378549 C90.6769136,28.9480835 89.9706742,29.2541665 89.2644349,29.2541665 Z M78.2160107,22.8322367 C79.3655688,22.8322367 80.1946325,23.7911674 80.2752359,25.1782267 L75.8727545,25.1782267 C75.9936597,23.771795 76.9628197,22.8322367 78.2160107,22.8322367 Z M59.8748974,22.8322367 C61.0263747,22.8322367 61.8554383,23.7911674 61.9360417,25.1782267 L57.5316412,25.1782267 C57.6544655,23.771795 58.6236255,22.8322367 59.8748974,22.8322367 Z M32.707711,29.3161579 C31.1935185,29.3161579 30.143755,28.031772 30.143755,26.1565297 C30.143755,24.2812875 31.1935185,22.9969015 32.707711,22.9969015 C34.2027123,22.9969015 35.2524757,24.2812875 35.2524757,26.1565297 C35.2524757,28.031772 34.2027123,29.3161579 32.707711,29.3161579 Z M20.9933492,24.0972503 L19.0339188,24.0972503 L19.0339188,19.3471532 L20.9933492,19.3471532 C22.4883505,19.3471532 23.5381139,20.3060839 23.5381139,21.7318879 C23.5381139,23.1383196 22.4883505,24.0972503 20.9933492,24.0972503 Z" id="Shape"></path>
        </g>
    </g>
</svg>