<?xml version="1.0" encoding="UTF-8"?>
<svg width="30px" height="30px" viewBox="0 0 30 30" version="1.1" xmlns="http://www.w3.org/2000/svg" xmlns:xlink="http://www.w3.org/1999/xlink">
    <!-- Generator: Sketch 42 (36781) - http://www.bohemiancoding.com/sketch -->
    <title>Shape</title>
    <desc>Created with Sketch.</desc>
    <defs></defs>
    <g id="Page-1" stroke="none" stroke-width="1" fill="none" fill-rule="evenodd">
        <path d="M30,11.6155496 C30,11.1492245 29.6635479,10.8594184 28.9901384,10.7458663 L19.9399674,9.36615869 L15.8835342,0.764935113 C15.6553176,0.248223423 15.3606062,-0.01 15.0000947,-0.01 C14.6396464,-0.01 14.3451245,0.248223423 14.1167184,0.764935113 L10.0600958,9.36615869 L1.00948271,10.7458663 C0.336578435,10.8594184 0,11.1492245 0,11.6155496 C0,11.8803279 0.150292059,12.1827803 0.45081303,12.5230394 L7.01339788,19.2148663 L5.46292691,28.6664394 C5.43886755,28.8429583 5.42693259,28.9693554 5.42693259,29.0446374 C5.42693259,29.3092833 5.48995422,29.5328783 5.61612377,29.7157535 C5.74223017,29.8988935 5.93142135,29.99 6.1839499,29.99 C6.40042099,29.99 6.64069884,29.9147179 6.90509919,29.7633593 L14.9999053,25.3016558 L23.0952797,29.7633593 C23.348124,29.9147179 23.588465,29.99 23.8161764,29.99 C24.0573383,29.99 24.2402147,29.8988935 24.3663843,29.7157535 C24.4921749,29.5331432 24.5552597,29.3092833 24.5552597,29.0446374 C24.5552597,28.8810297 24.5491975,28.7550299 24.5371362,28.6664394 L22.986539,19.2148663 L29.5310004,12.5230394 C29.8439615,12.1953605 30,11.8927756 30,11.6155496 Z" id="Shape" fill="#CDCDCD" fill-rule="nonzero"></path>
    </g>
</svg>