<?xml version="1.0" encoding="UTF-8"?>
<svg width="20px" height="20px" viewBox="0 0 20 20" version="1.1" xmlns="http://www.w3.org/2000/svg" xmlns:xlink="http://www.w3.org/1999/xlink">
    <!-- Generator: Sketch 42 (36781) - http://www.bohemiancoding.com/sketch -->
    <title>Shape</title>
    <desc>Created with Sketch.</desc>
    <defs></defs>
    <g id="Page-1" stroke="none" stroke-width="1" fill="none" fill-rule="evenodd">
        <path d="M20,7.74036637 C20,7.42948302 19.7756986,7.23627893 19.3267589,7.16057754 L13.2933116,6.24077246 L10.5890228,0.506623409 C10.4368784,0.162148949 10.2404041,-0.01 10.0000631,-0.01 C9.75976425,-0.01 9.5634163,0.162148949 9.41114561,0.506623409 L6.70673052,6.24077246 L0.672988476,7.16057754 C0.224385623,7.23627893 0,7.42948302 0,7.74036637 C0,7.91688525 0.100194706,8.11852023 0.30054202,8.34535957 L4.67559859,12.8065775 L3.64195127,19.1076263 C3.6259117,19.2253055 3.61795506,19.3095702 3.61795506,19.3597583 C3.61795506,19.5361889 3.65996948,19.6852522 3.74408251,19.807169 C3.82815345,19.9292623 3.9542809,19.99 4.12263327,19.99 C4.26694732,19.99 4.42713256,19.939812 4.60339946,19.8389062 L9.99993685,16.8644372 L15.3968531,19.8389062 C15.565416,19.939812 15.7256433,19.99 15.8774509,19.99 C16.0382255,19.99 16.1601431,19.9292623 16.2442562,19.807169 C16.3281166,19.6854288 16.3701731,19.5361889 16.3701731,19.3597583 C16.3701731,19.2506865 16.3661317,19.1666866 16.3580908,19.1076263 L15.3243593,12.8065775 L19.6873336,8.34535957 C19.8959743,8.12690697 20,7.92518371 20,7.74036637 Z" id="Shape" fill="#CDCDCD" fill-rule="nonzero"></path>
    </g>
</svg>